<svg width="1200" height="630" viewBox="0 0 1200 630" fill="none" xmlns="http://www.w3.org/2000/svg">
  <defs>
    <linearGradient id="bg" x1="0" y1="0" x2="1200" y2="630" gradientUnits="userSpaceOnUse">
      <stop stop-color="#111827"/>
      <stop offset="1" stop-color="#0F2A48"/>
    </linearGradient>
    <linearGradient id="accent" x1="0" y1="0" x2="1" y2="1">
      <stop stop-color="#22C55E"/>
      <stop offset="1" stop-color="#3B82F6"/>
    </linearGradient>
  </defs>
  <rect width="1200" height="630" fill="url(#bg)"/>
  <g opacity="0.14">
    <circle cx="1040" cy="120" r="170" fill="#3B82F6"/>
    <circle cx="180" cy="540" r="180" fill="#22C55E"/>
  </g>
  <rect x="90" y="100" width="1020" height="320" rx="26" fill="#0B1220" stroke="#334155"/>
  <rect x="140" y="150" width="300" height="220" rx="14" fill="#111827" stroke="#1F2937"/>
  <rect x="170" y="190" width="240" height="14" rx="7" fill="#1F2937"/>
  <rect x="170" y="220" width="200" height="10" rx="5" fill="#1F2937"/>
  <rect x="170" y="242" width="220" height="10" rx="5" fill="#1F2937"/>
  <rect x="500" y="150" width="560" height="220" rx="14" fill="#111827" stroke="#1F2937"/>
  <rect x="540" y="190" width="320" height="14" rx="7" fill="#1F2937"/>
  <rect x="540" y="220" width="460" height="10" rx="5" fill="#1F2937"/>
  <rect x="540" y="242" width="430" height="10" rx="5" fill="#1F2937"/>
  <rect x="540" y="292" width="180" height="42" rx="21" fill="url(#accent)"/>
  <text x="90" y="500" fill="#E5E7EB" font-family="Segoe UI, Arial, sans-serif" font-size="58" font-weight="700">AI Job Analyzer</text>
  <text x="90" y="555" fill="#94A3B8" font-family="Segoe UI, Arial, sans-serif" font-size="30">Resume Matching • Live Job Intelligence • Cloud Deployment</text>
</svg>