<svg width="1200" height="630" viewBox="0 0 1200 630" fill="none" xmlns="http://www.w3.org/2000/svg">
  <defs>
    <linearGradient id="bg" x1="0" y1="0" x2="1200" y2="630" gradientUnits="userSpaceOnUse">
      <stop stop-color="#0F172A"/>
      <stop offset="1" stop-color="#1E293B"/>
    </linearGradient>
    <linearGradient id="accent" x1="0" y1="0" x2="1" y2="1">
      <stop stop-color="#38BDF8"/>
      <stop offset="1" stop-color="#6366F1"/>
    </linearGradient>
  </defs>
  <rect width="1200" height="630" fill="url(#bg)"/>
  <g opacity="0.13">
    <circle cx="180" cy="520" r="170" fill="#38BDF8"/>
    <circle cx="1020" cy="120" r="170" fill="#6366F1"/>
  </g>
  <rect x="130" y="90" width="460" height="420" rx="24" fill="#0B1220" stroke="#334155"/>
  <circle cx="360" cy="270" r="120" fill="#111827" stroke="#475569"/>
  <circle cx="320" cy="250" r="12" fill="#60A5FA"/>
  <circle cx="400" cy="250" r="12" fill="#60A5FA"/>
  <path d="M320 315 C345 340, 375 340, 400 315" stroke="#60A5FA" stroke-width="8" stroke-linecap="round"/>
  <rect x="280" y="190" width="160" height="170" rx="16" stroke="#38BDF8" stroke-width="4" stroke-dasharray="8 8"/>
  <rect x="650" y="140" width="420" height="48" rx="24" fill="url(#accent)"/>
  <text x="685" y="172" fill="#FFFFFF" font-family="Segoe UI, Arial, sans-serif" font-size="24" font-weight="700">ACCESS AUTHORIZED</text>
  <rect x="650" y="230" width="360" height="16" rx="8" fill="#334155"/>
  <rect x="650" y="262" width="300" height="12" rx="6" fill="#334155"/>
  <rect x="650" y="286" width="340" height="12" rx="6" fill="#334155"/>
  <rect x="650" y="330" width="190" height="42" rx="21" fill="url(#accent)"/>
  <text x="90" y="560" fill="#E5E7EB" font-family="Segoe UI, Arial, sans-serif" font-size="56" font-weight="700">Facial Recognition Access System</text>
</svg>