<svg width="1200" height="675" viewBox="0 0 1200 675" fill="none" xmlns="http://www.w3.org/2000/svg">
  <defs>
    <linearGradient id="bg" x1="0" y1="0" x2="1200" y2="675" gradientUnits="userSpaceOnUse">
      <stop stop-color="#0F172A"/>
      <stop offset="0.5" stop-color="#1D4ED8"/>
      <stop offset="1" stop-color="#0EA5E9"/>
    </linearGradient>
    <linearGradient id="panel" x1="200" y1="110" x2="1000" y2="565" gradientUnits="userSpaceOnUse">
      <stop stop-color="#FFFFFF" stop-opacity="0.22"/>
      <stop offset="1" stop-color="#FFFFFF" stop-opacity="0.07"/>
    </linearGradient>
  </defs>

  <rect width="1200" height="675" fill="url(#bg)"/>
  <circle cx="1050" cy="120" r="180" fill="#FFFFFF" fill-opacity="0.12"/>
  <circle cx="190" cy="540" r="220" fill="#FFFFFF" fill-opacity="0.09"/>

  <rect x="150" y="90" width="900" height="495" rx="28" fill="url(#panel)" stroke="#FFFFFF" stroke-opacity="0.28" stroke-width="2"/>

  <rect x="200" y="145" width="350" height="20" rx="10" fill="#E2E8F0" fill-opacity="0.85"/>
  <rect x="200" y="180" width="500" height="14" rx="7" fill="#E2E8F0" fill-opacity="0.65"/>

  <rect x="200" y="230" width="340" height="220" rx="18" fill="#0B1220" fill-opacity="0.55" stroke="#93C5FD" stroke-opacity="0.65"/>
  <rect x="580" y="230" width="420" height="60" rx="14" fill="#FFFFFF" fill-opacity="0.18"/>
  <rect x="580" y="305" width="420" height="60" rx="14" fill="#FFFFFF" fill-opacity="0.16"/>
  <rect x="580" y="380" width="420" height="60" rx="14" fill="#FFFFFF" fill-opacity="0.14"/>

  <rect x="200" y="475" width="130" height="44" rx="22" fill="#22C55E"/>
  <rect x="346" y="475" width="150" height="44" rx="22" fill="#FFFFFF" fill-opacity="0.32"/>

  <text x="200" y="560" fill="#F8FAFC" font-family="Segoe UI, Arial, sans-serif" font-size="44" font-weight="700">
    Portfolio Website
  </text>
  <text x="200" y="600" fill="#DBEAFE" font-family="Segoe UI, Arial, sans-serif" font-size="24" font-weight="500">
    Next.js + TypeScript + Tailwind CSS
  </text>
</svg>
