<svg width="1200" height="630" viewBox="0 0 1200 630" fill="none" xmlns="http://www.w3.org/2000/svg">
  <defs>
    <linearGradient id="bg" x1="0" y1="0" x2="1200" y2="630" gradientUnits="userSpaceOnUse">
      <stop stop-color="#0B1022"/>
      <stop offset="1" stop-color="#1B0F3B"/>
    </linearGradient>
    <linearGradient id="chip" x1="0" y1="0" x2="1" y2="1">
      <stop stop-color="#3B82F6"/>
      <stop offset="1" stop-color="#9333EA"/>
    </linearGradient>
  </defs>
  <rect width="1200" height="630" fill="url(#bg)"/>
  <g opacity="0.15">
    <circle cx="200" cy="120" r="140" fill="#3B82F6"/>
    <circle cx="980" cy="500" r="180" fill="#A855F7"/>
    <circle cx="620" cy="320" r="220" fill="#2563EB"/>
  </g>
  <rect x="80" y="80" width="460" height="300" rx="24" fill="#0F172A" stroke="#334155"/>
  <rect x="120" y="130" width="220" height="16" rx="8" fill="#1E293B"/>
  <rect x="120" y="165" width="360" height="12" rx="6" fill="#1E293B"/>
  <rect x="120" y="190" width="320" height="12" rx="6" fill="#1E293B"/>
  <rect x="120" y="230" width="120" height="36" rx="18" fill="url(#chip)"/>
  <rect x="250" y="230" width="120" height="36" rx="18" fill="url(#chip)"/>
  <rect x="380" y="230" width="120" height="36" rx="18" fill="url(#chip)"/>
  <text x="80" y="465" fill="#E2E8F0" font-family="Segoe UI, Arial, sans-serif" font-size="58" font-weight="700">Enterprise RAG System</text>
  <text x="80" y="525" fill="#94A3B8" font-family="Segoe UI, Arial, sans-serif" font-size="30">Grounded QA • FAISS • LlamaIndex • Reranking</text>
</svg>