<svg width="1200" height="630" viewBox="0 0 1200 630" fill="none" xmlns="http://www.w3.org/2000/svg">
  <defs>
    <linearGradient id="bg" x1="0" y1="0" x2="1200" y2="630" gradientUnits="userSpaceOnUse">
      <stop stop-color="#1F2937"/>
      <stop offset="1" stop-color="#111827"/>
    </linearGradient>
    <linearGradient id="accent" x1="0" y1="0" x2="1" y2="1">
      <stop stop-color="#06B6D4"/>
      <stop offset="1" stop-color="#8B5CF6"/>
    </linearGradient>
  </defs>
  <rect width="1200" height="630" fill="url(#bg)"/>
  <g opacity="0.12">
    <circle cx="220" cy="130" r="150" fill="#06B6D4"/>
    <circle cx="1020" cy="480" r="180" fill="#8B5CF6"/>
  </g>
  <rect x="90" y="90" width="1020" height="340" rx="28" fill="#0B1220" stroke="#334155"/>
  <g>
    <circle cx="260" cy="230" r="24" fill="#06B6D4"/>
    <circle cx="330" cy="190" r="18" fill="#22D3EE"/>
    <circle cx="350" cy="270" r="20" fill="#67E8F9"/>
    <circle cx="430" cy="220" r="22" fill="#A78BFA"/>
    <circle cx="500" cy="170" r="16" fill="#8B5CF6"/>
    <circle cx="520" cy="260" r="20" fill="#C4B5FD"/>
  </g>
  <g stroke="#334155" stroke-width="3">
    <line x1="260" y1="230" x2="330" y2="190"/>
    <line x1="260" y1="230" x2="350" y2="270"/>
    <line x1="330" y1="190" x2="430" y2="220"/>
    <line x1="430" y1="220" x2="500" y2="170"/>
    <line x1="430" y1="220" x2="520" y2="260"/>
  </g>
  <rect x="640" y="150" width="400" height="20" rx="10" fill="#1F2937"/>
  <rect x="640" y="190" width="340" height="14" rx="7" fill="#1F2937"/>
  <rect x="640" y="218" width="380" height="14" rx="7" fill="#1F2937"/>
  <rect x="640" y="246" width="300" height="14" rx="7" fill="#1F2937"/>
  <rect x="640" y="292" width="180" height="40" rx="20" fill="url(#accent)"/>
  <text x="90" y="505" fill="#E5E7EB" font-family="Segoe UI, Arial, sans-serif" font-size="56" font-weight="700">Topic Modeling &amp; Text Mining</text>
  <text x="90" y="558" fill="#94A3B8" font-family="Segoe UI, Arial, sans-serif" font-size="30">NLP • Deep Learning • Semantic Clustering</text>
</svg>